<svg xmlns="http://www.w3.org/2000/svg" viewBox="0 0 101 99" width="101" height="99">
	<style>
		tspan { white-space:pre }
		.shp0 { fill: #ffffff } 
	</style>
	<path id="Layer" class="shp0" d="M-159.95 12.38L-150.92 12.38L-150.92 71.45L-159.95 71.45L-159.95 12.38Z" />
	<path id="Layer" fill-rule="evenodd" class="shp0" d="M-124.84 36.32C-123.62 36.28 -122.39 36.37 -121.19 36.58C-119.98 36.78 -118.8 37.11 -117.66 37.55C-116.52 38 -115.42 38.56 -114.39 39.22C-113.37 39.88 -112.41 40.65 -111.53 41.5C-110.68 42.35 -109.91 43.28 -109.25 44.28C-108.58 45.28 -108.02 46.34 -107.58 47.46C-107.13 48.57 -106.8 49.73 -106.59 50.92C-106.38 52.1 -106.29 53.3 -106.32 54.5C-106.28 55.72 -106.37 56.93 -106.58 58.13C-106.79 59.33 -107.13 60.5 -107.58 61.63C-108.03 62.76 -108.6 63.84 -109.27 64.86C-109.94 65.87 -110.72 66.81 -111.58 67.67C-112.46 68.52 -113.42 69.29 -114.45 69.95C-115.49 70.61 -116.58 71.17 -117.72 71.61C-118.87 72.05 -120.05 72.38 -121.26 72.59C-122.47 72.79 -123.69 72.88 -124.92 72.84C-126.15 72.88 -127.37 72.79 -128.58 72.59C-129.79 72.38 -130.97 72.05 -132.12 71.61C-133.26 71.17 -134.35 70.61 -135.39 69.95C-136.42 69.29 -137.38 68.52 -138.26 67.67C-139.12 66.82 -139.9 65.88 -140.57 64.88C-141.24 63.87 -141.8 62.8 -142.25 61.67C-142.71 60.55 -143.04 59.38 -143.25 58.19C-143.47 57 -143.55 55.79 -143.52 54.58C-143.55 53.37 -143.46 52.16 -143.25 50.96C-143.03 49.77 -142.7 48.6 -142.24 47.48C-141.79 46.36 -141.22 45.28 -140.54 44.28C-139.87 43.27 -139.09 42.34 -138.22 41.49C-137.34 40.64 -136.37 39.87 -135.33 39.21C-134.3 38.55 -133.2 38 -132.05 37.55C-130.91 37.11 -129.72 36.78 -128.51 36.58C-127.3 36.37 -126.07 36.28 -124.84 36.32ZM-116.1 54.57C-116.08 53.97 -116.12 53.37 -116.22 52.77C-116.32 52.18 -116.48 51.6 -116.7 51.03C-116.91 50.47 -117.18 49.93 -117.5 49.42C-117.82 48.91 -118.19 48.44 -118.61 48C-119.45 47.18 -120.43 46.54 -121.52 46.1C-122.6 45.65 -123.76 45.43 -124.93 45.43C-126.1 45.43 -127.26 45.65 -128.34 46.1C-129.43 46.54 -130.41 47.18 -131.25 48C-131.66 48.43 -132.03 48.9 -132.35 49.41C-132.67 49.91 -132.94 50.44 -133.15 51C-133.36 51.56 -133.52 52.13 -133.62 52.72C-133.72 53.31 -133.76 53.9 -133.74 54.5C-133.76 55.11 -133.72 55.72 -133.63 56.32C-133.53 56.92 -133.37 57.51 -133.15 58.08C-132.94 58.65 -132.67 59.2 -132.35 59.72C-132.02 60.23 -131.65 60.72 -131.23 61.16C-130.82 61.59 -130.36 61.97 -129.87 62.3C-129.38 62.63 -128.85 62.91 -128.3 63.13C-127.75 63.35 -127.18 63.52 -126.6 63.62C-126.02 63.72 -125.42 63.77 -124.83 63.75C-124.25 63.77 -123.66 63.72 -123.09 63.62C-122.52 63.51 -121.96 63.34 -121.42 63.12C-120.88 62.9 -120.37 62.62 -119.89 62.29C-119.41 61.96 -118.96 61.58 -118.56 61.16C-118.15 60.72 -117.78 60.24 -117.47 59.73C-117.15 59.22 -116.88 58.68 -116.67 58.12C-116.46 57.55 -116.3 56.97 -116.21 56.38C-116.11 55.78 -116.07 55.18 -116.09 54.58L-116.1 54.57Z" />
	<path id="Layer" fill-rule="evenodd" class="shp0" d="M-83.5 36.32C-82.28 36.28 -81.06 36.37 -79.85 36.58C-78.65 36.78 -77.47 37.11 -76.33 37.55C-75.19 38 -74.1 38.55 -73.07 39.21C-72.04 39.88 -71.09 40.64 -70.21 41.49C-69.36 42.34 -68.59 43.27 -67.93 44.27C-67.26 45.27 -66.7 46.33 -66.26 47.45C-65.81 48.56 -65.48 49.72 -65.27 50.91C-65.06 52.09 -64.97 53.29 -65 54.49C-64.96 55.71 -65.05 56.92 -65.26 58.12C-65.47 59.32 -65.8 60.5 -66.25 61.63C-66.7 62.76 -67.27 63.84 -67.94 64.85C-68.61 65.87 -69.39 66.81 -70.25 67.67C-72.06 69.32 -74.15 70.62 -76.43 71.5C-78.71 72.38 -81.14 72.84 -83.59 72.84C-86.03 72.84 -88.46 72.38 -90.74 71.5C-93.02 70.62 -95.11 69.32 -96.92 67.67C-97.78 66.82 -98.56 65.88 -99.23 64.88C-99.9 63.87 -100.46 62.8 -100.91 61.67C-101.37 60.55 -101.7 59.38 -101.91 58.19C-102.13 57 -102.21 55.79 -102.18 54.58C-102.21 53.37 -102.12 52.16 -101.91 50.96C-101.69 49.77 -101.36 48.6 -100.9 47.48C-100.45 46.36 -99.88 45.28 -99.2 44.28C-98.53 43.27 -97.75 42.34 -96.88 41.49C-96 40.64 -95.03 39.87 -93.99 39.21C-92.96 38.55 -91.86 38 -90.71 37.55C-89.57 37.11 -88.38 36.78 -87.17 36.58C-85.96 36.37 -84.73 36.28 -83.5 36.32ZM-74.75 54.57C-74.73 53.97 -74.77 53.37 -74.87 52.77C-74.97 52.18 -75.13 51.6 -75.35 51.03C-75.56 50.47 -75.83 49.93 -76.15 49.42C-76.47 48.91 -76.84 48.44 -77.26 48C-78.1 47.18 -79.08 46.54 -80.17 46.1C-81.25 45.65 -82.41 45.43 -83.58 45.43C-84.75 45.43 -85.91 45.65 -86.99 46.1C-88.08 46.54 -89.06 47.18 -89.9 48C-90.31 48.43 -90.68 48.9 -91 49.4C-91.32 49.91 -91.59 50.44 -91.8 51C-92.02 51.56 -92.18 52.13 -92.28 52.72C-92.38 53.31 -92.42 53.9 -92.4 54.5C-92.42 55.11 -92.38 55.72 -92.29 56.32C-92.19 56.92 -92.03 57.51 -91.81 58.08C-91.6 58.65 -91.33 59.2 -91.01 59.72C-90.68 60.23 -90.31 60.72 -89.89 61.16C-89.48 61.59 -89.02 61.97 -88.53 62.3C-88.04 62.63 -87.51 62.91 -86.96 63.13C-86.41 63.35 -85.84 63.52 -85.26 63.62C-84.68 63.72 -84.08 63.77 -83.49 63.75C-82.91 63.77 -82.32 63.72 -81.75 63.62C-81.18 63.51 -80.62 63.34 -80.08 63.12C-79.54 62.9 -79.03 62.62 -78.55 62.29C-78.07 61.96 -77.62 61.58 -77.22 61.16C-76.81 60.72 -76.44 60.24 -76.13 59.73C-75.81 59.22 -75.54 58.68 -75.33 58.12C-75.12 57.55 -74.96 56.97 -74.87 56.38C-74.77 55.78 -74.73 55.18 -74.75 54.58L-74.75 54.57Z" />
	<path id="Layer" class="shp0" d="M-7 40.74C-9.68 37.8 -13.44 36.32 -18.2 36.32C-19.41 36.27 -20.61 36.37 -21.8 36.61C-22.98 36.86 -24.13 37.24 -25.22 37.77C-26.31 38.29 -27.33 38.94 -28.26 39.71C-29.19 40.47 -30.03 41.35 -30.75 42.32C-33.45 38.32 -37.43 36.32 -42.58 36.32C-47.73 36.32 -51.58 37.8 -54.49 40.73C-57.4 43.66 -58.81 47.73 -58.81 52.88L-58.81 71.81L-49 71.81L-49 52.88C-49.03 52.39 -49.02 51.9 -48.96 51.41C-48.9 50.92 -48.79 50.44 -48.64 49.97C-48.49 49.5 -48.3 49.05 -48.06 48.61C-47.83 48.18 -47.55 47.77 -47.24 47.39C-46.92 47.06 -46.56 46.77 -46.18 46.52C-45.79 46.26 -45.38 46.05 -44.95 45.89C-44.52 45.72 -44.07 45.61 -43.62 45.54C-43.16 45.47 -42.7 45.45 -42.24 45.48C-41.8 45.46 -41.35 45.49 -40.91 45.57C-40.48 45.65 -40.05 45.77 -39.64 45.94C-39.23 46.12 -38.84 46.33 -38.48 46.59C-38.12 46.85 -37.79 47.15 -37.49 47.48C-37.18 47.85 -36.91 48.25 -36.67 48.67C-36.43 49.09 -36.24 49.54 -36.08 50C-35.93 50.45 -35.82 50.93 -35.75 51.4C-35.68 51.88 -35.66 52.37 -35.68 52.85L-35.68 71.78L-26 71.78L-26 52.88C-26.02 52.39 -25.99 51.91 -25.91 51.43C-25.83 50.95 -25.7 50.48 -25.53 50.03C-25.36 49.57 -25.14 49.13 -24.89 48.72C-24.63 48.31 -24.33 47.92 -24 47.57C-23.68 47.23 -23.32 46.93 -22.93 46.66C-22.54 46.4 -22.13 46.17 -21.7 46C-21.26 45.82 -20.81 45.68 -20.35 45.6C-19.89 45.51 -19.42 45.48 -18.95 45.49C-18.52 45.46 -18.09 45.49 -17.67 45.56C-17.25 45.63 -16.83 45.76 -16.44 45.92C-16.04 46.09 -15.67 46.3 -15.32 46.56C-14.98 46.81 -14.66 47.1 -14.38 47.43C-14.09 47.82 -13.83 48.23 -13.61 48.66C-13.39 49.1 -13.21 49.55 -13.07 50.01C-12.93 50.48 -12.83 50.95 -12.77 51.44C-12.72 51.92 -12.7 52.41 -12.73 52.89L-12.73 71.82L-3 71.82L-3 52.88C-3 47.75 -4.32 43.66 -7 40.74Z" />
	<path id="Layer" fill-rule="evenodd" class="shp0" d="M68.69 82.67L18.8 47.67C17.1 46.48 15.71 44.89 14.75 43.05C13.8 41.21 13.3 39.16 13.3 37.08C13.3 35.01 13.8 32.96 14.75 31.12C15.71 29.28 17.1 27.69 18.8 26.5L30.89 18L80.78 53C82.48 54.19 83.87 55.78 84.83 57.62C85.78 59.46 86.28 61.51 86.28 63.58C86.28 65.66 85.78 67.71 84.83 69.55C83.87 71.39 82.48 72.98 80.78 74.17L68.69 82.67ZM30.88 23.67L21.46 30.26C20.36 31.03 19.47 32.05 18.85 33.23C18.23 34.42 17.91 35.73 17.91 37.07C17.91 38.41 18.23 39.72 18.85 40.91C19.47 42.09 20.36 43.11 21.46 43.88L68.7 77L78.12 70.41C79.22 69.64 80.11 68.62 80.73 67.44C81.35 66.25 81.67 64.94 81.67 63.6C81.67 62.26 81.35 60.95 80.73 59.76C80.11 58.58 79.22 57.56 78.12 56.79L30.88 23.67Z" />
	<path id="Layer" class="shp0" d="M30.84 77L21.43 70.4C20.33 69.63 19.44 68.61 18.82 67.43C18.2 66.24 17.88 64.93 17.88 63.59C17.88 62.25 18.2 60.94 18.82 59.75C19.44 58.57 20.33 57.55 21.43 56.78L45.77 39.78L41.77 36.96L18.8 53C17.1 54.19 15.71 55.78 14.75 57.62C13.8 59.46 13.3 61.51 13.3 63.58C13.3 65.66 13.8 67.71 14.75 69.55C15.71 71.39 17.1 72.98 18.8 74.17L30.85 82.63L45.76 72.2L41.76 69.38L30.84 77Z" />
	<path id="Layer" class="shp0" d="M80.8 26.52L68.74 18.06L53.82 28.5L57.82 31.32L68.72 23.69L78.13 30.29C79.23 31.06 80.12 32.08 80.74 33.26C81.36 34.45 81.68 35.76 81.68 37.1C81.68 38.44 81.36 39.75 80.74 40.94C80.12 42.12 79.23 43.14 78.13 43.91L53.79 60.91L57.79 63.73L80.79 47.66C82.49 46.47 83.88 44.88 84.84 43.04C85.79 41.2 86.29 39.15 86.29 37.07C86.29 35 85.79 32.95 84.84 31.11C83.88 29.27 82.49 27.68 80.79 26.49L80.8 26.52Z" />
	<path id="Layer" class="shp0" d="M21.65 50.97L40.63 37.69L43.27 41.47L24.29 54.75L21.65 50.97Z" />
	<path id="Layer" class="shp0" d="M75.7 45.62L66.46 52.09L69.1 55.87L78.69 49.16C77.67 48 76.69 46.81 75.7 45.62Z" />
</svg>